<svg fill="white" width="29px" height="40px" viewBox="0 0 29 40" version="1.1" xmlns="http://www.w3.org/2000/svg" xmlns:xlink="http://www.w3.org/1999/xlink">
    <g id="Brand" stroke="none" stroke-width="1" fill-rule="evenodd">
        <g id="Artboard" transform="translate(-143.000000, -205.000000)">
            <path d="M161.959182,220.521273 C160.541,220.076727 159.283727,219.987636 159.283727,219.987636 C158.938273,220.420364 157.892818,220.815818 157.030091,220.343091 C156.310091,219.948545 155.920091,218.954909 156.258273,217.818545 C156.330091,217.579455 156.485545,217.333091 156.612818,217.157636 C156.676455,217.070364 156.589182,216.953091 156.486455,216.988545 C156.334636,217.042182 156.167364,217.135818 155.993727,217.326727 C155.582818,217.776727 155.191909,218.658545 155.363727,219.684 C154.139182,220.209455 153.238273,219.626727 152.927364,218.851273 C152.862818,218.692182 152.824636,218.524909 152.812818,218.357636 C152.755545,217.581273 152.955545,216.981273 153.541,216.224909 C153.689182,216.033091 153.851909,215.883091 153.994636,215.772182 C154.085545,215.701273 154.010091,215.558545 153.899182,215.589455 C153.667364,215.654 153.427364,215.761273 153.240091,215.884 C152.746455,216.209455 152.371909,216.662182 152.169182,217.384 C151.310091,216.610364 151.654636,215.118545 152.699182,214.527636 C153.483727,214.084909 154.219182,214.038545 154.837364,214.052182 C155.831,213.716727 157.479182,213.355818 159.546455,213.613091 C162.590091,213.992182 165.836455,215.450364 167.954636,217.387636 L171.812818,210.299455 C167.954636,207.012182 163.325545,205.214909 158.182818,205.214909 C149.091909,205.214909 143.729182,210.301273 143.729182,217.335818 C143.729182,221.752182 146.576455,225.252182 149.017364,226.780364 C151.985545,228.639455 154.909182,228.913091 157.759182,229.264 C159.591909,229.489455 161.377364,229.464909 162.332818,229.494 C162.923727,229.506727 163.273727,229.556727 163.339182,229.902182 C163.395545,230.202182 163.127364,230.388545 162.647364,230.555818 C161.837364,230.836727 160.585545,230.961273 159.780091,231.017636 C159.667364,231.024909 159.564636,231.053091 159.549182,231.147636 C159.534636,231.238545 159.630091,231.328545 159.754636,231.355818 C160.834636,231.589455 162.546455,231.617636 163.763727,231.586727 C164.461909,231.569455 164.830091,231.746727 164.874636,232.085818 C164.927364,232.492182 164.611909,232.654909 163.915545,232.855818 C163.153727,233.076727 161.149182,233.361273 159.456455,233.335818 C159.212818,233.332182 159.196455,233.587636 159.416455,233.662182 C160.400091,233.994 161.757364,234.037636 162.710091,234.098545 C163.274636,234.134909 163.608273,234.243091 163.614636,234.541273 C163.621909,234.844909 163.375545,235.054909 162.910091,235.200364 C162.114636,235.444909 160.649182,235.474909 159.830091,235.442182 C159.368273,235.424909 158.887364,235.374909 158.304636,235.311273 C158.304636,235.311273 157.258273,234.297636 155.811,233.834909 C155.600091,233.767636 155.435545,233.780364 155.418273,233.860364 C155.394636,233.970364 155.592818,234.079455 155.783727,234.209455 C156.627364,234.781273 157.089182,235.162182 157.393727,235.610364 C157.869182,236.308545 157.506455,236.899455 156.942818,236.784909 C155.811,236.553091 153.720091,235.634909 152.152818,234.915818 C150.396455,234.109455 148.995545,233.346727 147.557364,232.088545 L143.701909,239.172182 C147.560091,242.459455 152.189182,244.256727 157.331909,244.256727 C166.707364,244.256727 171.785545,238.888545 171.785545,232.135818 C171.785545,227.947636 169.327364,222.831273 161.959182,220.521273" id="Fill-201"></path>
        </g>
    </g>
</svg>